<?xml version="1.0" encoding="utf-8"?>
<!-- Generator: Adobe Illustrator 24.1.2, SVG Export Plug-In . SVG Version: 6.00 Build 0)  -->
<svg version="1.1" id="Camada_1" xmlns="http://www.w3.org/2000/svg" xmlns:xlink="http://www.w3.org/1999/xlink" x="0px" y="0px"
	 viewBox="0 0 23.5 32" style="enable-background:new 0 0 23.5 32;" xml:space="preserve">
<style type="text/css">
	.st0{fill:#FF4B55;}
</style>
<g>
	<g>
		<path class="st0" d="M8.2,7.5L2.7,19.1L4.5,21l5.5-3.3c1.5-0.9,2.5-2.6,2.5-4.4v-1.9l-4.9,2.9l6.2-5.1v4.7c0,1.8-1,3.5-2.5,4.4
			l-6.9,4l-3-3.1l4.9-11L0.8,7l5.6-1.9C8,4.6,9.6,4.3,11.2,4.4h0.6l2.8-3.6L15,2.9c0.4,2.2,1.4,4.2,2.8,5.9l2,2.6l2.2,9.7
			c0,0-8.4,5.2-12.5,10.1l-0.8-1.3c-0.8-1.4-1-3.1-0.4-4.7l1.5-4.1l-0.7,4.6c-0.2,1.2,0,2.4,0.6,3.5l0,0c0,0,1.5-2.6,10.9-8.7
			l-1.9-8.8l-2-2.5c-1.4-1.7-2.4-3.8-2.9-6l0,0l-1.5,2.3h-0.9C9.8,5.6,8.1,5.8,6.5,6.3L5,6.8L8.2,7.5z"/>
	</g>
</g>
</svg>
